<svg width="65" height="64" viewBox="0 0 65 64" fill="none" xmlns="http://www.w3.org/2000/svg">
<circle cx="32.3333" cy="32" r="32" fill="#5A59D9"/>
<g clip-path="url(#clip0_120_3831)">
<path d="M27.9998 26H35.9998V28H27.9998V26ZM23.9998 30V28H27.9998V30H23.9998ZM21.9998 32V30H23.9998V32H21.9998ZM21.9998 34V32H19.9998V34H21.9998ZM23.9998 36H21.9998V34H23.9998V36ZM27.9998 38H23.9998V36H27.9998V38ZM35.9998 38V40H27.9998V38H35.9998ZM39.9998 36V38H35.9998V36H39.9998ZM41.9998 34V36H39.9998V34H41.9998ZM41.9998 32H43.9998V34H41.9998V32ZM39.9998 30H41.9998V32H39.9998V30ZM39.9998 30V28H35.9998V30H39.9998ZM29.9998 31H33.9998V35H29.9998V31Z" fill="white"/>
</g>
<defs>
<clipPath id="clip0_120_3831">
<rect width="24" height="24" fill="white" transform="translate(19.9998 20)"/>
</clipPath>
</defs>
</svg>
