<svg width="65" height="64" viewBox="0 0 65 64" fill="none" xmlns="http://www.w3.org/2000/svg">
<circle cx="32.6667" cy="32" r="32" fill="#5A59D9"/>
<path d="M30.0002 22H26.0002V24H24.0002V26H22.0002V32H24.0002V34H26.0002V36H28.0002V38H30.0002V40H32.0002V42H34.0002V40H36.0002V38H38.0002V36H40.0002V34H42.0002V32H44.0002V26H42.0002V24H40.0002V22H36.0002V24H34.0002V26H32.0002V24H30.0002V22ZM30.0002 24V26H32.0002V28H34.0002V26H36.0002V24H40.0002V26H42.0002V32H40.0002V34H38.0002V36H36.0002V38H34.0002V40H32.0002V38H30.0002V36H28.0002V34H26.0002V32H24.0002V26H26.0002V24H30.0002Z" fill="white"/>
</svg>
