<svg width="9" height="6" viewBox="0 0 9 6" fill="none" xmlns="http://www.w3.org/2000/svg">
<path fill-rule="evenodd" clip-rule="evenodd" d="M0.184112 0.768044C0.298718 0.657779 0.452414 0.597527 0.611423 0.600527C0.770432 0.603527 0.921746 0.669535 1.03211 0.784044L4.00011 3.93444L6.96811 0.784044C7.02206 0.724568 7.0874 0.676526 7.16026 0.642765C7.23311 0.609005 7.31201 0.590212 7.39226 0.5875C7.47251 0.584789 7.55249 0.598214 7.62746 0.626979C7.70243 0.655745 7.77086 0.699267 7.8287 0.754966C7.88655 0.810665 7.93262 0.877407 7.96419 0.951238C7.99577 1.02507 8.0122 1.10449 8.01252 1.18478C8.01283 1.26508 7.99703 1.34463 7.96604 1.41871C7.93505 1.49278 7.88951 1.55989 7.83211 1.61604L4.43211 5.21604C4.37614 5.27411 4.30904 5.3203 4.23481 5.35185C4.16059 5.3834 4.08076 5.39966 4.00011 5.39966C3.91946 5.39966 3.83964 5.3834 3.76541 5.35185C3.69118 5.3203 3.62408 5.27411 3.56811 5.21604L0.168112 1.61604C0.0578474 1.50144 -0.00240499 1.34774 0.000595186 1.18873C0.00359536 1.02972 0.0696026 0.87841 0.184112 0.768044Z" fill="white"/>
</svg>
