<svg width="9" height="6" viewBox="0 0 9 6" fill="none" xmlns="http://www.w3.org/2000/svg">
<path fill-rule="evenodd" clip-rule="evenodd" d="M0.183989 0.768013C0.298596 0.657749 0.452292 0.597497 0.611301 0.600497C0.77031 0.603497 0.921623 0.669504 1.03199 0.784013L3.99999 3.93441L6.96799 0.784013C7.02194 0.724537 7.08728 0.676496 7.16013 0.642735C7.23299 0.608974 7.31188 0.590181 7.39214 0.58747C7.47239 0.584758 7.55237 0.598183 7.62734 0.626949C7.70231 0.655715 7.77074 0.699237 7.82858 0.754935C7.88642 0.810634 7.9325 0.877376 7.96407 0.951207C7.99564 1.02504 8.01208 1.10446 8.01239 1.18475C8.01271 1.26505 7.99691 1.3446 7.96592 1.41868C7.93493 1.49275 7.88939 1.55986 7.83199 1.61601L4.43199 5.21601C4.37602 5.27408 4.30892 5.32027 4.23469 5.35182C4.16047 5.38337 4.08064 5.39963 3.99999 5.39963C3.91934 5.39963 3.83951 5.38337 3.76529 5.35182C3.69106 5.32027 3.62396 5.27408 3.56799 5.21601L0.167989 1.61601C0.0577253 1.50141 -0.00252706 1.34771 0.000473116 1.1887C0.00347329 1.02969 0.0694806 0.878379 0.183989 0.768013Z" fill="#12114C"/>
</svg>
