<svg width="357" height="357" viewBox="0 0 357 357" fill="none" xmlns="http://www.w3.org/2000/svg">
<path d="M41.09 0.5H315.91C338.327 0.5 356.5 18.6728 356.5 41.09V315.91C356.5 338.327 338.327 356.5 315.91 356.5H41.09C18.6728 356.5 0.5 338.327 0.5 315.91V41.09C0.5 18.6728 18.6728 0.5 41.09 0.5Z" fill="white" stroke="black"/>
<path d="M111.172 273.294C115.738 265.442 121.993 254.698 136.076 248.594C158.429 237.458 176.651 249.763 194.279 261.667C204.841 268.806 215.754 276.168 227.211 277.952C227.352 277.975 227.492 278.008 227.629 278.05C248.678 284.118 273.096 280.727 294.655 268.77C295.207 268.315 295.374 267.628 292.982 262.729C292.081 260.996 291.333 259.177 290.75 257.295C289.671 255.278 288.4 251.718 286.401 246.051C284.402 240.385 280.547 229.4 278.164 226.054C266.389 231.914 253.288 234.053 240.41 232.218C227.532 230.384 215.415 224.653 205.493 215.703C185.975 198.187 161.941 195.92 145.216 197.107C144.577 197.147 143.939 197.012 143.364 196.714C142.788 196.415 142.294 195.964 141.929 195.403C141.551 194.83 141.31 194.167 141.225 193.472C141.141 192.777 141.216 192.071 141.444 191.414C144.789 181.741 148.561 172.086 152.207 162.752C154.716 156.309 157.325 149.644 159.733 143.058L160.57 140.899C162.242 136.553 163.956 132.056 165.721 127.648L165.796 127.478C166.786 125.126 168.411 123.142 170.463 121.782C172.516 120.421 174.903 119.746 177.317 119.842C179.732 119.937 182.065 120.8 184.017 122.32C185.969 123.839 187.452 125.946 188.275 128.37C190.783 134.251 193.033 140.497 195.199 146.538C202.098 165.768 208.621 183.927 223.941 194.421L224.1 194.537C235.983 203.621 252.215 205.245 267.669 198.999C264.014 188.924 259.975 178.636 255.317 167.535C255.294 167.492 255.275 167.447 255.259 167.401C250.191 154.096 244.864 140.631 239.713 127.612C235.858 117.877 231.869 107.802 228.005 97.8616C227.311 96.0769 226.625 94.2922 225.948 92.5076C224.485 88.6884 222.979 84.7354 221.349 80.9786C218.714 75.9637 212.409 75.1249 209.725 75H141.946C141.67 75 134.562 75.2052 130.816 84.9227L130.715 85.1904C127.638 93.15 124.452 101.377 121.073 109.391C112.309 132.1 103.244 155.096 94.4802 177.342C87.0375 196.206 79.3523 215.712 71.9013 234.951C70.6375 238.706 69.1888 242.388 67.5611 245.98C65.1192 251.611 62.8028 256.965 62 262.515V267.476C62.276 272.179 63.4969 279.969 68.481 280.861H79.0596H88.9525C93.9701 280.861 99.0462 280.861 104.064 280.942C104.214 280.928 104.365 280.928 104.515 280.942C106.338 281.245 107.944 278.845 111.172 273.294Z" fill="url(#paint0_linear_72_14)"/>
<defs>
<linearGradient id="paint0_linear_72_14" x1="62" y1="177.993" x2="295.006" y2="177.993" gradientUnits="userSpaceOnUse">
<stop stop-color="#1CD6B4"/>
<stop offset="1" stop-color="#002BD1"/>
</linearGradient>
</defs>
</svg>
