<svg width="104" height="24" viewBox="0 0 104 24" fill="none" xmlns="http://www.w3.org/2000/svg">
<path d="M43.1318 3.63837C43.1176 3.6041 43.0935 3.57481 43.0626 3.5542C43.0317 3.53358 42.9954 3.52257 42.9582 3.52256H39.6006C39.5634 3.52244 39.527 3.53339 39.4961 3.55402C39.4652 3.57465 39.4411 3.60402 39.427 3.63837L31.7442 21.9543C31.7321 21.9828 31.7273 22.0139 31.7303 22.0447C31.7332 22.0756 31.7437 22.1052 31.7609 22.131C31.7781 22.1567 31.8014 22.1779 31.8288 22.1925C31.8561 22.2071 31.8867 22.2147 31.9177 22.2146H34.5677C34.6052 22.2147 34.6418 22.2037 34.6729 22.1828C34.704 22.162 34.7282 22.1324 34.7423 22.0978L36.6086 17.5565H45.9554L47.796 22.0968C47.8101 22.1315 47.8342 22.1612 47.8653 22.1822C47.8964 22.2032 47.933 22.2145 47.9706 22.2146H50.6411C50.6715 22.2146 50.7014 22.2074 50.7284 22.1935C50.7554 22.1796 50.7786 22.1594 50.7962 22.1347C50.8134 22.1089 50.8238 22.0794 50.8267 22.0486C50.8296 22.0178 50.8247 21.9868 50.8126 21.9584L43.1318 3.63837ZM44.9067 14.9829H37.6275L41.2789 6.11657L44.9067 14.9829Z" fill="#12114C"/>
<path d="M62.5722 19.7979H55.183L62.5783 11.6603C62.6092 11.6255 62.6263 11.5807 62.6266 11.5342V9.62379C62.6266 9.57404 62.6068 9.52634 62.5715 9.49116C62.5363 9.45599 62.4885 9.43623 62.4386 9.43623H52.0565C52.0066 9.43623 51.9588 9.45599 51.9236 9.49116C51.8883 9.52634 51.8685 9.57404 51.8685 9.62379V11.6654C51.8685 11.7151 51.8883 11.7628 51.9236 11.798C51.9588 11.8332 52.0066 11.8529 52.0565 11.8529H59.1837L51.7884 19.9906C51.7565 20.0248 51.7388 20.0699 51.7391 20.1167V22.0261C51.7391 22.0761 51.759 22.124 51.7945 22.1594C51.8299 22.1948 51.878 22.2146 51.9281 22.2146H62.5722C62.5969 22.2146 62.6214 22.2098 62.6443 22.2003C62.6672 22.1908 62.688 22.1769 62.7054 22.1593C62.7229 22.1418 62.7367 22.121 62.7461 22.0981C62.7555 22.0753 62.7603 22.0508 62.7601 22.0261V19.9824C62.7593 19.9332 62.7391 19.8863 62.704 19.8518C62.6688 19.8173 62.6215 19.7979 62.5722 19.7979Z" fill="#12114C"/>
<path d="M75.4471 18.1099L73.4802 17.3505C73.4557 17.3409 73.4295 17.3366 73.4033 17.3379C73.377 17.3391 73.3514 17.3458 73.3279 17.3576C73.3045 17.3694 73.2838 17.386 73.2672 17.4063C73.2506 17.4266 73.2384 17.4502 73.2316 17.4755C72.7417 19.225 71.5944 20.1115 69.8205 20.1115C67.6132 20.1115 66.1517 18.6429 66.0541 16.3533H74.8544C74.8974 16.3533 74.939 16.3387 74.9725 16.3118C75.0059 16.285 75.0292 16.2475 75.0383 16.2057C75.1498 15.694 75.2042 15.1715 75.2006 14.6478C75.2006 12.9701 74.6685 11.6295 73.6209 10.6651C72.5763 9.67605 71.1825 9.17487 69.4795 9.17487C67.7396 9.17487 66.166 9.85643 65.0485 11.0945C63.9629 12.2977 63.3651 13.9499 63.3651 15.7465C63.3651 19.7713 65.9586 22.476 69.8205 22.476C72.6708 22.476 74.6552 21.0473 75.558 18.3446C75.5734 18.2988 75.5705 18.2488 75.5498 18.205C75.5291 18.1613 75.4923 18.1272 75.4471 18.1099ZM72.5814 14.3547H66.0818C66.3766 12.637 67.681 11.5383 69.4569 11.5383C71.3335 11.5383 72.5958 12.596 72.5989 14.1702L72.5814 14.3547Z" fill="#12114C"/>
<path d="M82.4952 9.17487C81.1959 9.17487 80.1595 9.70065 79.5104 10.6733V9.62378C79.5104 9.57404 79.4905 9.52633 79.4553 9.49116C79.42 9.45598 79.3722 9.43622 79.3224 9.43622H77.0627C77.0129 9.43622 76.9651 9.45598 76.9298 9.49116C76.8946 9.52633 76.8748 9.57404 76.8748 9.62378V22.025C76.8746 22.0497 76.8794 22.0742 76.8888 22.0971C76.8982 22.12 76.912 22.1408 76.9295 22.1583C76.9469 22.1758 76.9677 22.1897 76.9906 22.1992C77.0134 22.2087 77.038 22.2136 77.0627 22.2136H79.3224C79.3472 22.2136 79.3717 22.2087 79.3946 22.1992C79.4174 22.1897 79.4382 22.1758 79.4557 22.1583C79.4731 22.1408 79.487 22.12 79.4963 22.0971C79.5057 22.0742 79.5105 22.0497 79.5104 22.025V14.1231C79.5104 12.5529 80.3423 11.5373 81.6293 11.5373C82.7591 11.5373 83.434 12.1625 83.434 13.2078C83.4282 13.5054 83.4028 13.8022 83.3579 14.0964C83.3541 14.1231 83.3561 14.1502 83.3637 14.1761C83.3712 14.2019 83.3843 14.2258 83.4019 14.2462C83.4195 14.2666 83.4413 14.283 83.4658 14.2943C83.4902 14.3056 83.5169 14.3115 83.5438 14.3117H85.747C85.7889 14.3115 85.8295 14.2974 85.8625 14.2716C85.8954 14.2458 85.9188 14.2098 85.9288 14.1692C86.042 13.6994 86.0968 13.2175 86.0921 12.7343C86.0921 10.7061 84.5463 9.17487 82.4952 9.17487Z" fill="#12114C"/>
<path d="M89.6789 9.43623H87.4233C87.3195 9.43623 87.2353 9.5202 87.2353 9.62379V22.0271C87.2353 22.1307 87.3195 22.2146 87.4233 22.2146H89.6789C89.7827 22.2146 89.8668 22.1307 89.8668 22.0271V9.62379C89.8668 9.5202 89.7827 9.43623 89.6789 9.43623Z" fill="#12114C"/>
<path d="M89.8113 4.4911H87.2928C87.189 4.4911 87.1049 4.57508 87.1049 4.67866V7.32187C87.1049 7.42545 87.189 7.50942 87.2928 7.50942H89.8113C89.9152 7.50942 89.9993 7.42545 89.9993 7.32187V4.67866C89.9993 4.57508 89.9152 4.4911 89.8113 4.4911Z" fill="#12114C"/>
<path d="M103.813 9.43622H101.536C101.511 9.43609 101.487 9.44084 101.464 9.45021C101.441 9.45957 101.42 9.47336 101.402 9.49079C101.385 9.50822 101.371 9.52894 101.361 9.55177C101.352 9.57459 101.347 9.59906 101.347 9.62378V11.1007C100.457 9.87078 98.9764 9.17487 97.183 9.17487C93.6394 9.17487 91.0675 12.0046 91.0675 15.9033C91.0675 19.7118 93.662 22.476 97.2302 22.476C98.9897 22.476 100.414 21.778 101.473 20.3995V22.0261C101.473 22.0508 101.478 22.0753 101.487 22.0981C101.497 22.121 101.511 22.1418 101.528 22.1593C101.545 22.1769 101.566 22.1908 101.589 22.2003C101.612 22.2097 101.636 22.2146 101.661 22.2146H103.812C103.837 22.2146 103.861 22.2097 103.884 22.2003C103.907 22.1908 103.928 22.1769 103.945 22.1593C103.963 22.1418 103.977 22.121 103.986 22.0981C103.995 22.0753 104 22.0508 104 22.0261V9.62481C104 9.60017 103.995 9.57576 103.986 9.55295C103.977 9.53015 103.963 9.50939 103.946 9.49188C103.928 9.47437 103.908 9.46044 103.885 9.45089C103.862 9.44134 103.838 9.43636 103.813 9.43622ZM97.5723 20.0849C95.705 20.0849 93.6959 18.7679 93.6959 15.8767C93.6959 13.7982 95.0538 11.5906 97.5723 11.5906C99.4776 11.5906 101.448 13.1935 101.448 15.8767C101.448 18.6398 99.4981 20.0849 97.5723 20.0849Z" fill="#12114C"/>
<path d="M26.2552 17.373L26.2306 17.3371C24.8021 18.0015 23.2128 18.244 21.6506 18.0359C20.0884 17.8277 18.6186 17.1777 17.4148 16.1626C15.0524 14.1753 12.1323 13.9181 10.1038 14.0524C10.0262 14.0572 9.94866 14.0421 9.87867 14.0083C9.80868 13.9746 9.7486 13.9234 9.70423 13.8597C9.65849 13.7945 9.62927 13.7193 9.61908 13.6404C9.60888 13.5615 9.61801 13.4813 9.64568 13.4067C10.0565 12.31 10.5095 11.2154 10.9512 10.1567C11.2593 9.42494 11.5726 8.6696 11.8673 7.92245L11.9701 7.6775C12.1755 7.1835 12.3809 6.6731 12.5956 6.17295C12.5979 6.16662 12.6006 6.16045 12.6038 6.1545C12.7268 5.88504 12.9281 5.65863 13.1815 5.50459C13.435 5.35055 13.7289 5.27597 14.0253 5.29051C14.3139 5.3057 14.5916 5.40563 14.8235 5.57776C15.0554 5.74989 15.2312 5.98655 15.3287 6.25802C15.6369 6.92522 15.906 7.63445 16.1689 8.32011C17.006 10.5011 17.7969 12.5611 19.655 13.7521L19.6745 13.7644C21.1125 14.7954 23.0845 14.9799 24.96 14.2666C24.8645 14.2153 18.2026 10.6794 17.8175 4.83033C17.6007 1.58756 14.9713 0.509371 12.649 0.201902H9.70115C9.66725 0.201902 8.8055 0.225474 8.35151 1.32929L8.33919 1.35901C7.96532 2.26194 7.57912 3.19563 7.1693 4.10471C6.10623 6.68027 5.00618 9.28965 3.94311 11.813C3.04028 13.9488 2.11073 16.1626 1.20276 18.3426C1.04755 18.7691 0.870653 19.1875 0.672764 19.596C0.376953 20.2366 0.0975764 20.8413 0 21.4736V22.0322C0.033895 22.5651 0.181801 23.4496 0.786774 23.5542C1.93099 20.6178 4.34266 18.8858 5.75906 18.0812C6.10528 17.872 6.46803 17.6914 6.8437 17.5411L6.86219 17.5339C8.75414 16.7806 11.9433 16.3748 16.3672 18.7484C23.9678 22.8265 26.2275 17.3341 26.2275 17.3341C26.2275 17.3341 26.2439 17.3576 26.2522 17.3699L26.2552 17.373Z" fill="#12114C"/>
<path d="M28.2304 21.9297C28.121 21.7337 28.0306 21.5278 27.9603 21.3148C27.8288 21.0852 27.6747 20.6824 27.4323 20.0398C27.1899 19.3972 26.7215 18.1509 26.434 17.7707C26.434 17.7707 24.1743 23.2641 16.5736 19.1861C12.1498 16.8052 8.96161 17.2152 7.06863 17.9685L7.05117 17.9757C6.67541 18.1257 6.31264 18.3064 5.96653 18.5158C4.55013 19.3203 2.13846 21.0524 0.993217 23.9887H3.47577C4.08588 23.9887 4.70112 23.9887 5.3102 23.998C5.32831 23.9964 5.34653 23.9964 5.36464 23.998C5.58547 24.0266 5.77549 23.755 6.17093 23.1258C6.72557 22.2351 7.48359 21.0155 9.19169 20.3227C11.9033 19.06 14.1147 20.4559 16.2531 21.8067C17.534 22.6154 18.8579 23.4517 20.2476 23.6515C20.2649 23.6543 20.2821 23.6581 20.299 23.6628C22.8524 24.3505 25.8136 23.9703 28.4296 22.6092C28.4415 22.6016 28.4513 22.5913 28.4585 22.5792C28.4656 22.5671 28.4698 22.5535 28.4707 22.5395C28.479 22.4657 28.4266 22.3099 28.2304 21.9297Z" fill="#12114C"/>
<path d="M23.9883 10.4796C23.3721 8.97092 22.727 7.44382 22.1015 5.97002C21.6342 4.86518 21.1504 3.72242 20.6831 2.59401C20.5989 2.39313 20.5157 2.19054 20.4335 1.98624C20.2558 1.55271 20.074 1.10381 19.8758 0.678481C19.5563 0.108639 18.7911 0.0143485 18.4655 0H13.181C15.5043 0.307469 18.1338 1.38771 18.3474 4.62946C18.7346 10.5154 25.4797 14.0585 25.4921 14.0667C25.0483 12.9239 24.5584 11.7576 23.9935 10.499C23.9909 10.4928 23.9892 10.4862 23.9883 10.4796Z" fill="#12114C"/>
</svg>
