<svg width="104" height="24" viewBox="0 0 104 24" fill="none" xmlns="http://www.w3.org/2000/svg">
<path d="M43.1427 3.68953C43.1285 3.65478 43.1044 3.62507 43.0735 3.60417C43.0426 3.58326 43.0063 3.5721 42.9692 3.57208H39.6121C39.5749 3.57196 39.5385 3.58307 39.5076 3.60399C39.4767 3.62491 39.4526 3.6547 39.4385 3.68953L31.7571 22.2632C31.745 22.2921 31.7403 22.3236 31.7432 22.3549C31.7461 22.3862 31.7566 22.4162 31.7738 22.4424C31.791 22.4685 31.8143 22.4899 31.8417 22.5047C31.869 22.5195 31.8996 22.5272 31.9306 22.5272H34.5801C34.6176 22.5273 34.6542 22.5161 34.6853 22.495C34.7164 22.4738 34.7406 22.4438 34.7547 22.4087L36.6206 17.8035H45.9658L47.806 22.4077C47.8201 22.4429 47.8442 22.4731 47.8753 22.4944C47.9064 22.5156 47.9431 22.5271 47.9806 22.5272H50.6506C50.681 22.5272 50.7109 22.5198 50.7379 22.5057C50.7649 22.4916 50.7881 22.4712 50.8057 22.4461C50.8229 22.42 50.8333 22.39 50.8362 22.3588C50.8391 22.3276 50.8342 22.2962 50.8221 22.2674L43.1427 3.68953ZM44.9172 15.1937H37.6393L41.2901 6.2026L44.9172 15.1937Z" fill="#12114C"/>
<path d="M62.5795 20.0765H55.1917L62.5857 11.8243C62.6166 11.789 62.6337 11.7436 62.6339 11.6965V9.7592C62.6339 9.70875 62.6141 9.66038 62.5789 9.62471C62.5437 9.58904 62.4959 9.569 62.446 9.569H52.0657C52.0159 9.569 51.9681 9.58904 51.9329 9.62471C51.8976 9.66038 51.8778 9.70875 51.8778 9.7592V11.8295C51.8778 11.88 51.8976 11.9283 51.9329 11.964C51.9681 11.9997 52.0159 12.0197 52.0657 12.0197H59.1917L51.7977 20.2719C51.7658 20.3066 51.7482 20.3523 51.7484 20.3998V22.336C51.7484 22.3867 51.7683 22.4354 51.8038 22.4712C51.8392 22.5071 51.8873 22.5272 51.9374 22.5272H62.5795C62.6043 22.5272 62.6288 22.5223 62.6517 22.5127C62.6745 22.503 62.6953 22.4889 62.7128 22.4712C62.7302 22.4534 62.7441 22.4323 62.7534 22.4091C62.7628 22.3859 62.7676 22.3611 62.7674 22.336V20.2636C62.7666 20.2137 62.7465 20.1661 62.7113 20.1311C62.6762 20.0961 62.6288 20.0765 62.5795 20.0765Z" fill="#12114C"/>
<path d="M75.4522 18.3647L73.4856 17.5946C73.4611 17.5849 73.4349 17.5806 73.4087 17.5818C73.3825 17.5831 73.3568 17.5899 73.3334 17.6019C73.3099 17.6138 73.2892 17.6307 73.2726 17.6512C73.256 17.6718 73.2439 17.6957 73.2371 17.7214C72.7472 19.4955 71.6001 20.3945 69.8266 20.3945C67.6197 20.3945 66.1584 18.9052 66.0608 16.5834H74.8596C74.9025 16.5834 74.9442 16.5686 74.9776 16.5413C75.0111 16.5141 75.0343 16.4761 75.0435 16.4337C75.155 15.9148 75.2094 15.385 75.2057 14.8539C75.2057 13.1526 74.6737 11.7931 73.6263 10.8151C72.5819 9.81219 71.1883 9.30396 69.4857 9.30396C67.746 9.30396 66.1728 9.99511 65.0555 11.2506C63.97 12.4708 63.3723 14.1461 63.3723 15.9681C63.3723 20.0495 65.9653 22.7922 69.8266 22.7922C72.6764 22.7922 74.6604 21.3434 75.5631 18.6027C75.5785 18.5563 75.5755 18.5055 75.5549 18.4612C75.5342 18.4169 75.4974 18.3823 75.4522 18.3647ZM72.587 14.5567H66.0886C66.3833 12.8148 67.6875 11.7006 69.4631 11.7006C71.3393 11.7006 72.6014 12.7732 72.6045 14.3696L72.587 14.5567Z" fill="#12114C"/>
<path d="M82.499 9.30396C81.2 9.30396 80.1638 9.83713 79.5148 10.8234V9.75918C79.5148 9.70873 79.495 9.66036 79.4597 9.62469C79.4245 9.58902 79.3767 9.56898 79.3268 9.56898H77.0676C77.0177 9.56898 76.9699 9.58902 76.9347 9.62469C76.8994 9.66036 76.8796 9.70873 76.8796 9.75918V22.3349C76.8795 22.36 76.8843 22.3848 76.8937 22.408C76.903 22.4312 76.9169 22.4523 76.9343 22.4701C76.9518 22.4879 76.9725 22.502 76.9954 22.5116C77.0183 22.5212 77.0428 22.5262 77.0676 22.5262H79.3268C79.3516 22.5262 79.3761 22.5212 79.399 22.5116C79.4219 22.502 79.4426 22.4879 79.4601 22.4701C79.4775 22.4523 79.4914 22.4312 79.5007 22.408C79.5101 22.3848 79.5149 22.36 79.5148 22.3349V14.3218C79.5148 12.7296 80.3466 11.6996 81.6333 11.6996C82.763 11.6996 83.4377 12.3336 83.4377 13.3937C83.4319 13.6954 83.4066 13.9964 83.3617 14.2948C83.3579 14.3218 83.3598 14.3493 83.3674 14.3755C83.375 14.4017 83.388 14.426 83.4056 14.4466C83.4232 14.4673 83.445 14.4839 83.4695 14.4954C83.4939 14.5068 83.5206 14.5129 83.5475 14.513H85.7503C85.7922 14.5129 85.8328 14.4986 85.8657 14.4724C85.8987 14.4462 85.922 14.4097 85.9321 14.3686C86.0452 13.8921 86.1 13.4035 86.0954 12.9135C86.0954 10.8567 84.5498 9.30396 82.499 9.30396Z" fill="#12114C"/>
<path d="M89.6814 9.569H87.4262C87.3224 9.569 87.2383 9.65416 87.2383 9.7592V22.337C87.2383 22.4421 87.3224 22.5272 87.4262 22.5272H89.6814C89.7852 22.5272 89.8693 22.4421 89.8693 22.337V9.7592C89.8693 9.65416 89.7852 9.569 89.6814 9.569Z" fill="#12114C"/>
<path d="M89.8139 4.55426H87.2958C87.192 4.55426 87.1079 4.63942 87.1079 4.74446V7.42486C87.1079 7.5299 87.192 7.61506 87.2958 7.61506H89.8139C89.9177 7.61506 90.0018 7.5299 90.0018 7.42486V4.74446C90.0018 4.63942 89.9177 4.55426 89.8139 4.55426Z" fill="#12114C"/>
<path d="M103.813 9.56898H101.536C101.512 9.56884 101.487 9.57367 101.464 9.58316C101.441 9.59266 101.42 9.60665 101.403 9.62432C101.385 9.642 101.371 9.66301 101.362 9.68615C101.352 9.70929 101.347 9.73411 101.347 9.75918V11.2568C100.458 10.0097 98.9772 9.30396 97.1842 9.30396C93.6413 9.30396 91.0698 12.1735 91.0698 16.1271C91.0698 19.9892 93.6639 22.7922 97.2314 22.7922C98.9906 22.7922 100.415 22.0845 101.474 20.6866V22.336C101.474 22.361 101.478 22.3859 101.488 22.4091C101.497 22.4323 101.511 22.4534 101.528 22.4711C101.546 22.4889 101.567 22.503 101.589 22.5126C101.612 22.5223 101.637 22.5272 101.662 22.5272H103.812C103.837 22.5272 103.861 22.5223 103.884 22.5126C103.907 22.503 103.928 22.4889 103.945 22.4711C103.963 22.4534 103.977 22.4323 103.986 22.4091C103.995 22.3859 104 22.361 104 22.336V9.76022C104 9.73524 103.995 9.71048 103.986 9.68736C103.977 9.66423 103.963 9.64318 103.946 9.62542C103.928 9.60767 103.908 9.59354 103.885 9.58386C103.862 9.57417 103.838 9.56912 103.813 9.56898ZM97.5734 20.3675C95.7065 20.3675 93.6978 19.032 93.6978 16.1001C93.6978 13.9923 95.0554 11.7536 97.5734 11.7536C99.4784 11.7536 101.448 13.3791 101.448 16.1001C101.448 18.9021 99.4989 20.3675 97.5734 20.3675Z" fill="#12114C"/>
<path d="M6.03839 23.1009C6.59909 22.1863 7.36724 20.935 9.0966 20.2241C11.8416 18.927 14.0793 20.3603 16.2441 21.7467C17.5411 22.5782 18.8813 23.4356 20.2882 23.6435C20.3055 23.6462 20.3226 23.65 20.3395 23.6549C22.9243 24.3616 25.923 23.9667 28.5704 22.574C28.6382 22.521 28.6587 22.441 28.365 21.8704C28.2543 21.6685 28.1625 21.4566 28.0908 21.2374C27.9583 21.0026 27.8023 20.5879 27.5568 19.9279C27.3114 19.2679 26.838 17.9885 26.5453 17.5988C25.0993 18.2812 23.4905 18.5304 21.909 18.3167C20.3276 18.1031 18.8397 17.4356 17.6212 16.3932C15.2243 14.353 12.2729 14.089 10.219 14.2272C10.1406 14.232 10.0623 14.2162 9.99159 14.1814C9.92091 14.1467 9.86025 14.0941 9.81546 14.0287C9.76904 13.962 9.73936 13.8848 9.72898 13.8039C9.7186 13.7229 9.72784 13.6407 9.7559 13.5641C10.1667 12.4375 10.6298 11.313 11.0776 10.2259C11.3856 9.47546 11.7061 8.69909 12.0018 7.93207L12.1045 7.68056C12.3099 7.17441 12.5204 6.6506 12.7371 6.13717L12.7463 6.11742C12.8679 5.84345 13.0674 5.61243 13.3195 5.45396C13.5715 5.2955 13.8646 5.21681 14.1611 5.22798C14.4577 5.23914 14.7442 5.33965 14.9839 5.51663C15.2236 5.69361 15.4057 5.939 15.5067 6.22136C15.8148 6.90627 16.0911 7.63379 16.357 8.33741C17.2043 10.5771 18.0053 12.6922 19.8866 13.9144L19.9061 13.9279C21.3654 14.9859 23.3587 15.1751 25.2565 14.4476C24.8077 13.2742 24.3117 12.0758 23.7397 10.7829C23.7369 10.7779 23.7345 10.7727 23.7325 10.7673C23.1102 9.21771 22.456 7.64938 21.8234 6.13301C21.35 4.99911 20.8602 3.82573 20.3857 2.66792C20.3005 2.46006 20.2163 2.2522 20.1331 2.04433C19.9534 1.5995 19.7685 1.13909 19.5683 0.701533C19.2448 0.117436 18.4705 0.0197385 18.1408 0.00518799H9.81751C9.78362 0.00518799 8.91073 0.0290918 8.45066 1.16091L8.43834 1.19209C8.06043 2.11916 7.66916 3.07741 7.25428 4.01072C6.17805 6.65579 5.06485 9.33412 3.98862 11.9251C3.07465 14.1223 2.13089 16.3942 1.21589 18.635C1.0607 19.0724 0.882794 19.5012 0.682912 19.9196C0.383047 20.5754 0.0985859 21.199 0 21.8454V22.4233C0.0338889 22.971 0.183822 23.8784 0.795876 23.9823H2.09495H3.30982C3.92598 23.9823 4.54933 23.9823 5.16549 23.9916C5.18394 23.9901 5.20249 23.9901 5.22094 23.9916C5.44482 24.027 5.64199 23.7474 6.03839 23.1009Z" fill="url(#paint0_linear_7_1068)"/>
<path d="M28.3691 21.8703C28.2584 21.6685 28.1666 21.4566 28.0949 21.2374C27.9624 21.0025 27.8064 20.5888 27.5609 19.9278C27.3155 19.2668 26.8421 17.9885 26.5494 17.5998C26.5494 17.5998 24.2614 23.2391 16.5686 19.0548C12.0911 16.6176 8.86656 17.0333 6.94722 17.8076L6.92873 17.8149C6.54828 17.9689 6.18109 18.1545 5.83094 18.3699C4.39323 19.1951 1.95528 20.9744 0.79895 23.9885H2.09803H3.31289C3.92905 23.9885 4.5524 23.9885 5.16857 23.9978C5.18704 23.9968 5.20555 23.9968 5.22402 23.9978C5.44687 24.028 5.64404 23.7484 6.04043 23.103C6.60114 22.1884 7.36929 20.936 9.09865 20.2251C11.8437 18.928 14.0813 20.3623 16.2461 21.7477C17.5431 22.5791 18.8833 23.4366 20.2902 23.6455C20.3075 23.6478 20.3247 23.6513 20.3416 23.6559C22.9264 24.3626 25.925 23.9677 28.5725 22.575C28.6382 22.5209 28.6587 22.4461 28.3691 21.8703Z" fill="url(#paint1_linear_7_1068)"/>
<path d="M18.0299 4.75592C18.4233 10.8058 25.2627 14.4434 25.2627 14.4434C24.8139 13.27 24.3179 12.0717 23.7459 10.7788C23.7431 10.7738 23.7406 10.7686 23.7387 10.7632C23.1164 9.21357 22.4622 7.64523 21.8296 6.1299C21.3562 4.99497 20.8663 3.82261 20.3919 2.66377C20.3063 2.45591 20.2221 2.24804 20.1393 2.04018C19.9596 1.59431 19.7747 1.13389 19.5745 0.696339C19.251 0.112241 18.4767 0.0145505 18.147 0H12.8008C15.1525 0.323228 17.8143 1.42802 18.0299 4.75592Z" fill="url(#paint2_linear_7_1068)"/>
<path d="M43.1427 3.68953C43.1285 3.65478 43.1044 3.62507 43.0735 3.60417C43.0426 3.58326 43.0063 3.5721 42.9692 3.57208H39.6121C39.5749 3.57196 39.5385 3.58307 39.5076 3.60399C39.4767 3.62491 39.4526 3.6547 39.4385 3.68953L31.7571 22.2632C31.745 22.2921 31.7403 22.3236 31.7432 22.3549C31.7461 22.3862 31.7566 22.4162 31.7738 22.4424C31.791 22.4685 31.8143 22.4899 31.8417 22.5047C31.869 22.5195 31.8996 22.5272 31.9306 22.5272H34.5801C34.6176 22.5273 34.6542 22.5161 34.6853 22.495C34.7164 22.4738 34.7406 22.4438 34.7547 22.4087L36.6206 17.8035H45.9658L47.806 22.4077C47.8201 22.4429 47.8442 22.4731 47.8753 22.4944C47.9064 22.5156 47.9431 22.5271 47.9806 22.5272H50.6506C50.681 22.5272 50.7109 22.5198 50.7379 22.5057C50.7649 22.4916 50.7881 22.4712 50.8057 22.4461C50.8229 22.42 50.8333 22.39 50.8362 22.3588C50.8391 22.3276 50.8342 22.2962 50.8221 22.2674L43.1427 3.68953ZM44.9172 15.1937H37.6393L41.2901 6.2026L44.9172 15.1937Z" fill="#12114C"/>
<path d="M62.5795 20.0765H55.1917L62.5857 11.8243C62.6166 11.789 62.6337 11.7436 62.6339 11.6965V9.7592C62.6339 9.70875 62.6141 9.66038 62.5789 9.62471C62.5437 9.58904 62.4959 9.569 62.446 9.569H52.0657C52.0159 9.569 51.9681 9.58904 51.9329 9.62471C51.8976 9.66038 51.8778 9.70875 51.8778 9.7592V11.8295C51.8778 11.88 51.8976 11.9283 51.9329 11.964C51.9681 11.9997 52.0159 12.0197 52.0657 12.0197H59.1917L51.7977 20.2719C51.7658 20.3066 51.7482 20.3523 51.7484 20.3998V22.336C51.7484 22.3867 51.7683 22.4354 51.8038 22.4712C51.8392 22.5071 51.8873 22.5272 51.9374 22.5272H62.5795C62.6043 22.5272 62.6288 22.5223 62.6517 22.5127C62.6745 22.503 62.6953 22.4889 62.7128 22.4712C62.7302 22.4534 62.7441 22.4323 62.7534 22.4091C62.7628 22.3859 62.7676 22.3611 62.7674 22.336V20.2636C62.7666 20.2137 62.7465 20.1661 62.7113 20.1311C62.6762 20.0961 62.6288 20.0765 62.5795 20.0765Z" fill="#12114C"/>
<path d="M75.4522 18.3647L73.4856 17.5946C73.4611 17.5849 73.4349 17.5806 73.4087 17.5818C73.3825 17.5831 73.3568 17.5899 73.3334 17.6019C73.3099 17.6138 73.2892 17.6307 73.2726 17.6512C73.256 17.6718 73.2439 17.6957 73.2371 17.7214C72.7472 19.4955 71.6001 20.3945 69.8266 20.3945C67.6197 20.3945 66.1584 18.9052 66.0608 16.5834H74.8596C74.9025 16.5834 74.9442 16.5686 74.9776 16.5413C75.0111 16.5141 75.0343 16.4761 75.0435 16.4337C75.155 15.9148 75.2094 15.385 75.2057 14.8539C75.2057 13.1526 74.6737 11.7931 73.6263 10.8151C72.5819 9.81219 71.1883 9.30396 69.4857 9.30396C67.746 9.30396 66.1728 9.99511 65.0555 11.2506C63.97 12.4708 63.3723 14.1461 63.3723 15.9681C63.3723 20.0495 65.9653 22.7922 69.8266 22.7922C72.6764 22.7922 74.6604 21.3434 75.5631 18.6027C75.5785 18.5563 75.5755 18.5055 75.5549 18.4612C75.5342 18.4169 75.4974 18.3823 75.4522 18.3647ZM72.587 14.5567H66.0886C66.3833 12.8148 67.6875 11.7006 69.4631 11.7006C71.3393 11.7006 72.6014 12.7732 72.6045 14.3696L72.587 14.5567Z" fill="#12114C"/>
<path d="M82.499 9.30396C81.2 9.30396 80.1638 9.83713 79.5148 10.8234V9.75918C79.5148 9.70873 79.495 9.66036 79.4597 9.62469C79.4245 9.58902 79.3767 9.56898 79.3268 9.56898H77.0676C77.0177 9.56898 76.9699 9.58902 76.9347 9.62469C76.8994 9.66036 76.8796 9.70873 76.8796 9.75918V22.3349C76.8795 22.36 76.8843 22.3848 76.8937 22.408C76.903 22.4312 76.9169 22.4523 76.9343 22.4701C76.9518 22.4879 76.9725 22.502 76.9954 22.5116C77.0183 22.5212 77.0428 22.5262 77.0676 22.5262H79.3268C79.3516 22.5262 79.3761 22.5212 79.399 22.5116C79.4219 22.502 79.4426 22.4879 79.4601 22.4701C79.4775 22.4523 79.4914 22.4312 79.5007 22.408C79.5101 22.3848 79.5149 22.36 79.5148 22.3349V14.3218C79.5148 12.7296 80.3466 11.6996 81.6333 11.6996C82.763 11.6996 83.4377 12.3336 83.4377 13.3937C83.4319 13.6954 83.4066 13.9964 83.3617 14.2948C83.3579 14.3218 83.3598 14.3493 83.3674 14.3755C83.375 14.4017 83.388 14.426 83.4056 14.4466C83.4232 14.4673 83.445 14.4839 83.4695 14.4954C83.4939 14.5068 83.5206 14.5129 83.5475 14.513H85.7503C85.7922 14.5129 85.8328 14.4986 85.8657 14.4724C85.8987 14.4462 85.922 14.4097 85.9321 14.3686C86.0452 13.8921 86.1 13.4035 86.0954 12.9135C86.0954 10.8567 84.5498 9.30396 82.499 9.30396Z" fill="#12114C"/>
<path d="M89.6814 9.569H87.4262C87.3224 9.569 87.2383 9.65416 87.2383 9.7592V22.337C87.2383 22.4421 87.3224 22.5272 87.4262 22.5272H89.6814C89.7852 22.5272 89.8693 22.4421 89.8693 22.337V9.7592C89.8693 9.65416 89.7852 9.569 89.6814 9.569Z" fill="#12114C"/>
<path d="M89.8139 4.55426H87.2958C87.192 4.55426 87.1079 4.63942 87.1079 4.74446V7.42486C87.1079 7.5299 87.192 7.61506 87.2958 7.61506H89.8139C89.9177 7.61506 90.0018 7.5299 90.0018 7.42486V4.74446C90.0018 4.63942 89.9177 4.55426 89.8139 4.55426Z" fill="#12114C"/>
<path d="M103.813 9.56898H101.536C101.512 9.56884 101.487 9.57367 101.464 9.58316C101.441 9.59266 101.42 9.60665 101.403 9.62432C101.385 9.642 101.371 9.66301 101.362 9.68615C101.352 9.70929 101.347 9.73411 101.347 9.75918V11.2568C100.458 10.0097 98.9772 9.30396 97.1842 9.30396C93.6413 9.30396 91.0698 12.1735 91.0698 16.1271C91.0698 19.9892 93.6639 22.7922 97.2314 22.7922C98.9906 22.7922 100.415 22.0845 101.474 20.6866V22.336C101.474 22.361 101.478 22.3859 101.488 22.4091C101.497 22.4323 101.511 22.4534 101.528 22.4711C101.546 22.4889 101.567 22.503 101.589 22.5126C101.612 22.5223 101.637 22.5272 101.662 22.5272H103.812C103.837 22.5272 103.861 22.5223 103.884 22.5126C103.907 22.503 103.928 22.4889 103.945 22.4711C103.963 22.4534 103.977 22.4323 103.986 22.4091C103.995 22.3859 104 22.361 104 22.336V9.76022C104 9.73524 103.995 9.71048 103.986 9.68736C103.977 9.66423 103.963 9.64318 103.946 9.62542C103.928 9.60767 103.908 9.59354 103.885 9.58386C103.862 9.57417 103.838 9.56912 103.813 9.56898ZM97.5734 20.3675C95.7065 20.3675 93.6978 19.032 93.6978 16.1001C93.6978 13.9923 95.0554 11.7536 97.5734 11.7536C99.4784 11.7536 101.448 13.3791 101.448 16.1001C101.448 18.9021 99.4989 20.3675 97.5734 20.3675Z" fill="#12114C"/>
<path d="M6.03839 23.1009C6.59909 22.1863 7.36724 20.935 9.0966 20.2241C11.8416 18.927 14.0793 20.3603 16.2441 21.7467C17.5411 22.5782 18.8813 23.4356 20.2882 23.6435C20.3055 23.6462 20.3226 23.65 20.3395 23.6549C22.9243 24.3616 25.923 23.9667 28.5704 22.574C28.6382 22.521 28.6587 22.441 28.365 21.8704C28.2543 21.6685 28.1625 21.4566 28.0908 21.2374C27.9583 21.0026 27.8023 20.5879 27.5568 19.9279C27.3114 19.2679 26.838 17.9885 26.5453 17.5988C25.0993 18.2812 23.4905 18.5304 21.909 18.3167C20.3276 18.1031 18.8397 17.4356 17.6212 16.3932C15.2243 14.353 12.2729 14.089 10.219 14.2272C10.1406 14.232 10.0623 14.2162 9.99159 14.1814C9.92091 14.1467 9.86025 14.0941 9.81546 14.0287C9.76904 13.962 9.73936 13.8848 9.72898 13.8039C9.7186 13.7229 9.72784 13.6407 9.7559 13.5641C10.1667 12.4375 10.6298 11.313 11.0776 10.2259C11.3856 9.47546 11.7061 8.69909 12.0018 7.93207L12.1045 7.68056C12.3099 7.17441 12.5204 6.6506 12.7371 6.13717L12.7463 6.11742C12.8679 5.84345 13.0674 5.61243 13.3195 5.45396C13.5715 5.2955 13.8646 5.21681 14.1611 5.22798C14.4577 5.23914 14.7442 5.33965 14.9839 5.51663C15.2236 5.69361 15.4057 5.939 15.5067 6.22136C15.8148 6.90627 16.0911 7.63379 16.357 8.33741C17.2043 10.5771 18.0053 12.6922 19.8866 13.9144L19.9061 13.9279C21.3654 14.9859 23.3587 15.1751 25.2565 14.4476C24.8077 13.2742 24.3117 12.0758 23.7397 10.7829C23.7369 10.7779 23.7345 10.7727 23.7325 10.7673C23.1102 9.21771 22.456 7.64938 21.8234 6.13301C21.35 4.99911 20.8602 3.82573 20.3857 2.66792C20.3005 2.46006 20.2163 2.2522 20.1331 2.04433C19.9534 1.5995 19.7685 1.13909 19.5683 0.701533C19.2448 0.117436 18.4705 0.0197385 18.1408 0.00518799H9.81751C9.78362 0.00518799 8.91073 0.0290918 8.45066 1.16091L8.43834 1.19209C8.06043 2.11916 7.66916 3.07741 7.25428 4.01072C6.17805 6.65579 5.06485 9.33412 3.98862 11.9251C3.07465 14.1223 2.13089 16.3942 1.21589 18.635C1.0607 19.0724 0.882794 19.5012 0.682912 19.9196C0.383047 20.5754 0.0985859 21.199 0 21.8454V22.4233C0.0338889 22.971 0.183822 23.8784 0.795876 23.9823H2.09495H3.30982C3.92598 23.9823 4.54933 23.9823 5.16549 23.9916C5.18394 23.9901 5.20249 23.9901 5.22094 23.9916C5.44482 24.027 5.64199 23.7474 6.03839 23.1009Z" fill="url(#paint3_linear_7_1068)"/>
<path d="M28.3691 21.8703C28.2584 21.6685 28.1666 21.4566 28.0949 21.2374C27.9624 21.0025 27.8064 20.5888 27.5609 19.9278C27.3155 19.2668 26.8421 17.9885 26.5494 17.5998C26.5494 17.5998 24.2614 23.2391 16.5686 19.0548C12.0911 16.6176 8.86656 17.0333 6.94722 17.8076L6.92873 17.8149C6.54828 17.9689 6.18109 18.1545 5.83094 18.3699C4.39323 19.1951 1.95528 20.9744 0.79895 23.9885H2.09803H3.31289C3.92905 23.9885 4.5524 23.9885 5.16857 23.9978C5.18704 23.9968 5.20555 23.9968 5.22402 23.9978C5.44687 24.028 5.64404 23.7484 6.04043 23.103C6.60114 22.1884 7.36929 20.936 9.09865 20.2251C11.8437 18.928 14.0813 20.3623 16.2461 21.7477C17.5431 22.5791 18.8833 23.4366 20.2902 23.6455C20.3075 23.6478 20.3247 23.6513 20.3416 23.6559C22.9264 24.3626 25.925 23.9677 28.5725 22.575C28.6382 22.5209 28.6587 22.4461 28.3691 21.8703Z" fill="url(#paint4_linear_7_1068)"/>
<path d="M18.0299 4.75592C18.4233 10.8058 25.2627 14.4434 25.2627 14.4434C24.8139 13.27 24.3179 12.0717 23.7459 10.7788C23.7431 10.7738 23.7406 10.7686 23.7387 10.7632C23.1164 9.21357 22.4622 7.64523 21.8296 6.1299C21.3562 4.99497 20.8663 3.82261 20.3919 2.66377C20.3063 2.45591 20.2221 2.24804 20.1393 2.04018C19.9596 1.59431 19.7747 1.13389 19.5745 0.696339C19.251 0.112241 18.4767 0.0145505 18.147 0H12.8008C15.1525 0.323228 17.8143 1.42802 18.0299 4.75592Z" fill="url(#paint5_linear_7_1068)"/>
<defs>
<linearGradient id="paint0_linear_7_1068" x1="0" y1="12.001" x2="28.6135" y2="12.001" gradientUnits="userSpaceOnUse">
<stop stop-color="#1CD6B4"/>
<stop offset="1" stop-color="#002BD1"/>
</linearGradient>
<linearGradient id="paint1_linear_7_1068" x1="14.7047" y1="23.9989" x2="14.7047" y2="17.2038" gradientUnits="userSpaceOnUse">
<stop stop-color="#1CD6B4"/>
<stop offset="1" stop-color="#002BD1"/>
</linearGradient>
<linearGradient id="paint2_linear_7_1068" x1="12.8008" y1="7.22431" x2="25.2627" y2="7.22431" gradientUnits="userSpaceOnUse">
<stop stop-color="#1CD6B4"/>
<stop offset="1" stop-color="#002BD1"/>
</linearGradient>
<linearGradient id="paint3_linear_7_1068" x1="0" y1="12.001" x2="28.6135" y2="12.001" gradientUnits="userSpaceOnUse">
<stop stop-color="#1CD6B4"/>
<stop offset="1" stop-color="#002BD1"/>
</linearGradient>
<linearGradient id="paint4_linear_7_1068" x1="14.7047" y1="23.9989" x2="14.7047" y2="17.2038" gradientUnits="userSpaceOnUse">
<stop stop-color="#1CD6B4"/>
<stop offset="1" stop-color="#002BD1"/>
</linearGradient>
<linearGradient id="paint5_linear_7_1068" x1="12.8008" y1="7.22431" x2="25.2627" y2="7.22431" gradientUnits="userSpaceOnUse">
<stop stop-color="#1CD6B4"/>
<stop offset="1" stop-color="#002BD1"/>
</linearGradient>
</defs>
</svg>
