<svg width="80" height="18" viewBox="0 0 80 18" fill="none" xmlns="http://www.w3.org/2000/svg">
<path d="M33.1865 2.76704C33.1756 2.74098 33.1571 2.7187 33.1333 2.70302C33.1095 2.68734 33.0816 2.67897 33.053 2.67896H30.4707C30.442 2.67886 30.4141 2.6872 30.3903 2.70289C30.3665 2.71858 30.348 2.74092 30.3371 2.76704L24.4283 16.6973C24.4191 16.719 24.4154 16.7426 24.4176 16.7661C24.4199 16.7895 24.428 16.8121 24.4412 16.8317C24.4544 16.8513 24.4724 16.8673 24.4934 16.8784C24.5144 16.8895 24.538 16.8953 24.5618 16.8953H26.5999C26.6287 16.8954 26.6569 16.8869 26.6808 16.8711C26.7047 16.8553 26.7233 16.8328 26.7342 16.8064L28.1695 13.3525H35.3581L36.7737 16.8056C36.7845 16.8321 36.8031 16.8547 36.827 16.8707C36.8509 16.8866 36.8791 16.8952 36.908 16.8953H38.9618C38.9852 16.8953 39.0082 16.8898 39.029 16.8792C39.0497 16.8686 39.0676 16.8533 39.0811 16.8345C39.0943 16.8149 39.1024 16.7924 39.1046 16.769C39.1068 16.7456 39.1031 16.722 39.0938 16.7004L33.1865 2.76704ZM34.5515 11.3952H28.9532L31.7614 4.65184L34.5515 11.3952Z" fill="white"/>
<path d="M48.1383 15.0574H42.4554L48.143 8.86825C48.1667 8.84179 48.1799 8.80772 48.1801 8.77238V7.31941C48.1801 7.28157 48.1649 7.24529 48.1378 7.21854C48.1107 7.19179 48.0739 7.17676 48.0356 7.17676H40.0507C40.0124 7.17676 39.9756 7.19179 39.9485 7.21854C39.9214 7.24529 39.9062 7.28157 39.9062 7.31941V8.87215C39.9062 8.90998 39.9214 8.94626 39.9485 8.97301C39.9756 8.99977 40.0124 9.0148 40.0507 9.0148H45.5322L39.8446 15.2039C39.82 15.23 39.8064 15.2643 39.8066 15.2998V16.752C39.8066 16.79 39.822 16.8265 39.8492 16.8534C39.8765 16.8803 39.9134 16.8954 39.952 16.8954H48.1383C48.1573 16.8954 48.1762 16.8917 48.1938 16.8845C48.2114 16.8773 48.2273 16.8667 48.2408 16.8534C48.2542 16.8401 48.2648 16.8242 48.272 16.8068C48.2793 16.7894 48.2829 16.7708 48.2828 16.752V15.1977C48.2822 15.1603 48.2667 15.1246 48.2397 15.0983C48.2126 15.0721 48.1762 15.0574 48.1383 15.0574Z" fill="white"/>
<path d="M58.0402 13.7736L56.5275 13.196C56.5087 13.1888 56.4885 13.1855 56.4683 13.1864C56.4482 13.1874 56.4284 13.1925 56.4104 13.2015C56.3924 13.2104 56.3764 13.223 56.3637 13.2385C56.3509 13.2539 56.3416 13.2719 56.3363 13.2911C55.9595 14.6217 55.0771 15.296 53.7129 15.296C52.0153 15.296 50.8912 14.179 50.8161 12.4376H57.5844C57.6175 12.4376 57.6495 12.4265 57.6752 12.4061C57.7009 12.3856 57.7188 12.3572 57.7258 12.3253C57.8116 11.9361 57.8535 11.5388 57.8507 11.1405C57.8507 9.86448 57.4415 8.84491 56.6357 8.11141C55.8323 7.3592 54.7604 6.97803 53.4506 6.97803C52.1125 6.97803 50.9022 7.49639 50.0428 8.43801C49.2078 9.35314 48.748 10.6097 48.748 11.9761C48.748 15.0372 50.7427 17.0942 53.7129 17.0942C55.905 17.0942 57.4312 16.0076 58.1256 13.9521C58.1374 13.9173 58.1351 13.8792 58.1192 13.846C58.1033 13.8127 58.075 13.7868 58.0402 13.7736ZM55.8363 10.9176H50.8375C51.0642 9.61115 52.0674 8.77553 53.4332 8.77553C54.8765 8.77553 55.8473 9.57996 55.8497 10.7773L55.8363 10.9176Z" fill="white"/>
<path d="M63.4608 6.97803C62.4615 6.97803 61.6644 7.37791 61.1652 8.11764V7.31944C61.1652 7.28161 61.15 7.24533 61.1229 7.21858C61.0957 7.19183 61.059 7.1768 61.0206 7.1768H59.2827C59.2444 7.1768 59.2076 7.19183 59.1805 7.21858C59.1534 7.24533 59.1382 7.28161 59.1382 7.31944V16.7513C59.1381 16.7701 59.1417 16.7887 59.149 16.8061C59.1562 16.8235 59.1668 16.8393 59.1802 16.8526C59.1937 16.866 59.2096 16.8765 59.2272 16.8838C59.2448 16.891 59.2637 16.8947 59.2827 16.8947H61.0206C61.0397 16.8947 61.0586 16.891 61.0761 16.8838C61.0937 16.8765 61.1097 16.866 61.1231 16.8526C61.1366 16.8393 61.1472 16.8235 61.1544 16.8061C61.1616 16.7887 61.1653 16.7701 61.1652 16.7513V10.7414C61.1652 9.54723 61.8051 8.77475 62.7949 8.77475C63.6638 8.77475 64.1828 9.25024 64.1828 10.0453C64.1784 10.2716 64.1589 10.4974 64.1244 10.7211C64.1214 10.7414 64.1229 10.7621 64.1288 10.7817C64.1346 10.8013 64.1446 10.8195 64.1581 10.835C64.1717 10.8506 64.1884 10.863 64.2073 10.8716C64.2261 10.8802 64.2466 10.8847 64.2673 10.8848H65.9618C65.994 10.8847 66.0252 10.874 66.0506 10.8544C66.0759 10.8347 66.0939 10.8073 66.1016 10.7765C66.1886 10.4192 66.2308 10.0527 66.2272 9.6852C66.2272 8.14259 65.0383 6.97803 63.4608 6.97803Z" fill="white"/>
<path d="M68.9857 7.17676H67.251C67.1712 7.17676 67.1064 7.24062 67.1064 7.31941V16.7528C67.1064 16.8316 67.1712 16.8954 67.251 16.8954H68.9857C69.0656 16.8954 69.1303 16.8316 69.1303 16.7528V7.31941C69.1303 7.24062 69.0656 7.17676 68.9857 7.17676Z" fill="white"/>
<path d="M69.0874 3.41577H67.1504C67.0706 3.41577 67.0059 3.47964 67.0059 3.55842V5.56872C67.0059 5.6475 67.0706 5.71137 67.1504 5.71137H69.0874C69.1672 5.71137 69.2319 5.6475 69.2319 5.56872V3.55842C69.2319 3.47964 69.1672 3.41577 69.0874 3.41577Z" fill="white"/>
<path d="M79.8562 7.1768H78.1049C78.0858 7.17669 78.067 7.18031 78.0493 7.18743C78.0317 7.19456 78.0157 7.20505 78.0022 7.2183C77.9887 7.23156 77.9779 7.24732 77.9706 7.26467C77.9633 7.28203 77.9595 7.30065 77.9595 7.31944V8.44269C77.2755 7.5073 76.1363 6.97803 74.7571 6.97803C72.0318 6.97803 70.0537 9.1302 70.0537 12.0954C70.0537 14.992 72.0491 17.0942 74.7934 17.0942C76.1466 17.0942 77.2423 16.5634 78.0567 15.515V16.752C78.0566 16.7708 78.0603 16.7895 78.0675 16.8069C78.0747 16.8243 78.0853 16.8401 78.0988 16.8534C78.1122 16.8667 78.1282 16.8773 78.1458 16.8845C78.1634 16.8918 78.1822 16.8955 78.2013 16.8955H79.8554C79.8745 16.8955 79.8933 16.8918 79.9109 16.8845C79.9285 16.8773 79.9445 16.8667 79.9579 16.8534C79.9714 16.8401 79.982 16.8243 79.9892 16.8069C79.9964 16.7895 80.0001 16.7708 80 16.752V7.32022C80.0001 7.30149 79.9965 7.28292 79.9893 7.26558C79.9821 7.24823 79.9716 7.23245 79.9582 7.21913C79.9449 7.20581 79.929 7.19522 79.9115 7.18795C79.894 7.18069 79.8752 7.1769 79.8562 7.1768ZM75.0565 15.2757C73.6203 15.2757 72.0752 14.2741 72.0752 12.0751C72.0752 10.4943 73.1195 8.81528 75.0565 8.81528C76.5218 8.81528 78.037 10.0344 78.037 12.0751C78.037 14.1766 76.5376 15.2757 75.0565 15.2757Z" fill="white"/>
<path d="M4.64491 17.3257C5.07623 16.6398 5.66711 15.7013 6.99739 15.1681C9.10893 14.1953 10.8302 15.2702 12.4954 16.31C13.4932 16.9336 14.524 17.5767 15.6063 17.7326C15.6196 17.7346 15.6328 17.7375 15.6458 17.7412C17.6341 18.2712 19.9407 17.975 21.9772 16.9305C22.0294 16.8908 22.0452 16.8307 21.8192 16.4028C21.7341 16.2514 21.6634 16.0925 21.6083 15.9281C21.5064 15.7519 21.3863 15.4409 21.1975 14.9459C21.0088 14.451 20.6446 13.4914 20.4194 13.1991C19.3072 13.7109 18.0696 13.8978 16.8531 13.7376C15.6366 13.5773 14.4921 13.0767 13.5548 12.2949C11.711 10.7648 9.44071 10.5668 7.8608 10.6704C7.80046 10.674 7.74021 10.6622 7.68584 10.6361C7.63146 10.61 7.58481 10.5706 7.55035 10.5216C7.51464 10.4715 7.49181 10.4136 7.48383 10.3529C7.47585 10.2922 7.48295 10.2305 7.50454 10.1731C7.82052 9.32816 8.17679 8.48475 8.5212 7.6694C8.75819 7.10661 9.00465 6.52433 9.23216 5.94907L9.31116 5.76044C9.46915 5.38082 9.63108 4.98796 9.79776 4.60289L9.80488 4.58808C9.89835 4.3826 10.0519 4.20934 10.2458 4.09049C10.4397 3.97164 10.6651 3.91262 10.8932 3.921C11.1213 3.92937 11.3417 4.00476 11.5261 4.13749C11.7105 4.27022 11.8505 4.45427 11.9283 4.66603C12.1652 5.17972 12.3777 5.72536 12.5823 6.25307C13.2341 7.93287 13.8502 9.51913 15.2974 10.4358L15.3124 10.4459C16.4349 11.2395 17.9682 11.3813 19.4281 10.8357C19.0829 9.95565 18.7013 9.0569 18.2613 8.08721C18.2591 8.08347 18.2573 8.07956 18.2558 8.07552C17.7771 6.9133 17.2739 5.73705 16.7873 4.59977C16.4231 3.74935 16.0463 2.86931 15.6813 2.00096C15.6158 1.84506 15.551 1.68916 15.487 1.53326C15.3488 1.19964 15.2066 0.85433 15.0525 0.526165C14.8037 0.0880921 14.2081 0.0148191 13.9545 0.00390625H7.55193C7.52586 0.00390625 6.85441 0.0218341 6.50051 0.870698L6.49103 0.894082C6.20033 1.58939 5.89936 2.30808 5.58022 3.00806C4.75235 4.99186 3.89604 7.0006 3.06817 8.94387C2.36511 10.5917 1.63915 12.2957 0.935302 13.9763C0.815925 14.3043 0.679072 14.6259 0.525317 14.9397C0.294651 15.4316 0.0758353 15.8993 0 16.3841V16.8175C0.0260684 17.2283 0.141401 17.9088 0.612212 17.9867H1.6115H2.54601C3.01998 17.9867 3.49948 17.9867 3.97345 17.9937C3.98765 17.9926 4.00192 17.9926 4.01611 17.9937C4.18832 18.0202 4.33999 17.8106 4.64491 17.3257Z" fill="url(#paint0_linear_313_260)"/>
<path d="M21.8226 16.4028C21.7374 16.2514 21.6668 16.0925 21.6116 15.9281C21.5097 15.7519 21.3897 15.4417 21.2009 14.9459C21.0121 14.4502 20.6479 13.4914 20.4228 13.1999C20.4228 13.1999 18.6628 17.4294 12.7452 14.2912C9.30105 12.4633 6.8206 12.775 5.34418 13.3558L5.32996 13.3612C5.0373 13.4767 4.75485 13.6159 4.48551 13.7775C3.37957 14.3964 1.50423 15.7309 0.614746 17.9914H1.61404H2.54855C3.02252 17.9914 3.50202 17.9914 3.97599 17.9984C3.9902 17.9976 4.00444 17.9976 4.01865 17.9984C4.19007 18.021 4.34174 17.8113 4.64666 17.3273C5.07797 16.6413 5.66885 15.702 6.99913 15.1689C9.11067 14.1961 10.832 15.2718 12.4972 16.3108C13.4949 16.9344 14.5258 17.5775 15.608 17.7342C15.6213 17.7359 15.6345 17.7385 15.6475 17.742C17.6358 18.272 19.9425 17.9758 21.979 16.9313C22.0295 16.8908 22.0453 16.8346 21.8226 16.4028Z" fill="url(#paint1_linear_313_260)"/>
<path d="M13.8691 3.56694C14.1717 8.10435 19.4327 10.8326 19.4327 10.8326C19.0875 9.95252 18.706 9.05377 18.266 8.08408C18.2638 8.08034 18.262 8.07644 18.2604 8.07239C17.7817 6.91017 17.2785 5.73392 16.7919 4.59743C16.4278 3.74623 16.051 2.86696 15.686 1.99783C15.6202 1.84193 15.5554 1.68603 15.4917 1.53013C15.3534 1.19573 15.2112 0.850419 15.0572 0.522254C14.8084 0.0841811 14.2127 0.0109129 13.9592 0H9.84668C11.6557 0.242421 13.7032 1.07101 13.8691 3.56694Z" fill="url(#paint2_linear_313_260)"/>
<path d="M33.1865 2.76704C33.1756 2.74098 33.1571 2.7187 33.1333 2.70302C33.1095 2.68734 33.0816 2.67897 33.053 2.67896H30.4707C30.442 2.67886 30.4141 2.6872 30.3903 2.70289C30.3665 2.71858 30.348 2.74092 30.3371 2.76704L24.4283 16.6973C24.4191 16.719 24.4154 16.7426 24.4176 16.7661C24.4199 16.7895 24.428 16.8121 24.4412 16.8317C24.4544 16.8513 24.4724 16.8673 24.4934 16.8784C24.5144 16.8895 24.538 16.8953 24.5618 16.8953H26.5999C26.6287 16.8954 26.6569 16.8869 26.6808 16.8711C26.7047 16.8553 26.7233 16.8328 26.7342 16.8064L28.1695 13.3525H35.3581L36.7737 16.8056C36.7845 16.8321 36.8031 16.8547 36.827 16.8707C36.8509 16.8866 36.8791 16.8952 36.908 16.8953H38.9618C38.9852 16.8953 39.0082 16.8898 39.029 16.8792C39.0497 16.8686 39.0676 16.8533 39.0811 16.8345C39.0943 16.8149 39.1024 16.7924 39.1046 16.769C39.1068 16.7456 39.1031 16.722 39.0938 16.7004L33.1865 2.76704ZM34.5515 11.3952H28.9532L31.7614 4.65184L34.5515 11.3952Z" fill="white"/>
<path d="M48.1383 15.0574H42.4554L48.143 8.86825C48.1667 8.84179 48.1799 8.80772 48.1801 8.77238V7.31941C48.1801 7.28157 48.1649 7.24529 48.1378 7.21854C48.1107 7.19179 48.0739 7.17676 48.0356 7.17676H40.0507C40.0124 7.17676 39.9756 7.19179 39.9485 7.21854C39.9214 7.24529 39.9062 7.28157 39.9062 7.31941V8.87215C39.9062 8.90998 39.9214 8.94626 39.9485 8.97301C39.9756 8.99977 40.0124 9.0148 40.0507 9.0148H45.5322L39.8446 15.2039C39.82 15.23 39.8064 15.2643 39.8066 15.2998V16.752C39.8066 16.79 39.822 16.8265 39.8492 16.8534C39.8765 16.8803 39.9134 16.8954 39.952 16.8954H48.1383C48.1573 16.8954 48.1762 16.8917 48.1938 16.8845C48.2114 16.8773 48.2273 16.8667 48.2408 16.8534C48.2542 16.8401 48.2648 16.8242 48.272 16.8068C48.2793 16.7894 48.2829 16.7708 48.2828 16.752V15.1977C48.2822 15.1603 48.2667 15.1246 48.2397 15.0983C48.2126 15.0721 48.1762 15.0574 48.1383 15.0574Z" fill="white"/>
<path d="M58.0402 13.7736L56.5275 13.196C56.5087 13.1888 56.4885 13.1855 56.4683 13.1864C56.4482 13.1874 56.4284 13.1925 56.4104 13.2015C56.3924 13.2104 56.3764 13.223 56.3637 13.2385C56.3509 13.2539 56.3416 13.2719 56.3363 13.2911C55.9595 14.6217 55.0771 15.296 53.7129 15.296C52.0153 15.296 50.8912 14.179 50.8161 12.4376H57.5844C57.6175 12.4376 57.6495 12.4265 57.6752 12.4061C57.7009 12.3856 57.7188 12.3572 57.7258 12.3253C57.8116 11.9361 57.8535 11.5388 57.8507 11.1405C57.8507 9.86448 57.4415 8.84491 56.6357 8.11141C55.8323 7.3592 54.7604 6.97803 53.4506 6.97803C52.1125 6.97803 50.9022 7.49639 50.0428 8.43801C49.2078 9.35314 48.748 10.6097 48.748 11.9761C48.748 15.0372 50.7427 17.0942 53.7129 17.0942C55.905 17.0942 57.4312 16.0076 58.1256 13.9521C58.1374 13.9173 58.1351 13.8792 58.1192 13.846C58.1033 13.8127 58.075 13.7868 58.0402 13.7736ZM55.8363 10.9176H50.8375C51.0642 9.61115 52.0674 8.77553 53.4332 8.77553C54.8765 8.77553 55.8473 9.57996 55.8497 10.7773L55.8363 10.9176Z" fill="white"/>
<path d="M63.4608 6.97803C62.4615 6.97803 61.6644 7.37791 61.1652 8.11764V7.31944C61.1652 7.28161 61.15 7.24533 61.1229 7.21858C61.0957 7.19183 61.059 7.1768 61.0206 7.1768H59.2827C59.2444 7.1768 59.2076 7.19183 59.1805 7.21858C59.1534 7.24533 59.1382 7.28161 59.1382 7.31944V16.7513C59.1381 16.7701 59.1417 16.7887 59.149 16.8061C59.1562 16.8235 59.1668 16.8393 59.1802 16.8526C59.1937 16.866 59.2096 16.8765 59.2272 16.8838C59.2448 16.891 59.2637 16.8947 59.2827 16.8947H61.0206C61.0397 16.8947 61.0586 16.891 61.0761 16.8838C61.0937 16.8765 61.1097 16.866 61.1231 16.8526C61.1366 16.8393 61.1472 16.8235 61.1544 16.8061C61.1616 16.7887 61.1653 16.7701 61.1652 16.7513V10.7414C61.1652 9.54723 61.8051 8.77475 62.7949 8.77475C63.6638 8.77475 64.1828 9.25024 64.1828 10.0453C64.1784 10.2716 64.1589 10.4974 64.1244 10.7211C64.1214 10.7414 64.1229 10.7621 64.1288 10.7817C64.1346 10.8013 64.1446 10.8195 64.1581 10.835C64.1717 10.8506 64.1884 10.863 64.2073 10.8716C64.2261 10.8802 64.2466 10.8847 64.2673 10.8848H65.9618C65.994 10.8847 66.0252 10.874 66.0506 10.8544C66.0759 10.8347 66.0939 10.8073 66.1016 10.7765C66.1886 10.4192 66.2308 10.0527 66.2272 9.6852C66.2272 8.14259 65.0383 6.97803 63.4608 6.97803Z" fill="white"/>
<path d="M68.9857 7.17676H67.251C67.1712 7.17676 67.1064 7.24062 67.1064 7.31941V16.7528C67.1064 16.8316 67.1712 16.8954 67.251 16.8954H68.9857C69.0656 16.8954 69.1303 16.8316 69.1303 16.7528V7.31941C69.1303 7.24062 69.0656 7.17676 68.9857 7.17676Z" fill="white"/>
<path d="M69.0874 3.41577H67.1504C67.0706 3.41577 67.0059 3.47964 67.0059 3.55842V5.56872C67.0059 5.6475 67.0706 5.71137 67.1504 5.71137H69.0874C69.1672 5.71137 69.2319 5.6475 69.2319 5.56872V3.55842C69.2319 3.47964 69.1672 3.41577 69.0874 3.41577Z" fill="white"/>
<path d="M79.8562 7.1768H78.1049C78.0858 7.17669 78.067 7.18031 78.0493 7.18743C78.0317 7.19456 78.0157 7.20505 78.0022 7.2183C77.9887 7.23156 77.9779 7.24732 77.9706 7.26467C77.9633 7.28203 77.9595 7.30065 77.9595 7.31944V8.44269C77.2755 7.5073 76.1363 6.97803 74.7571 6.97803C72.0318 6.97803 70.0537 9.1302 70.0537 12.0954C70.0537 14.992 72.0491 17.0942 74.7934 17.0942C76.1466 17.0942 77.2423 16.5634 78.0567 15.515V16.752C78.0566 16.7708 78.0603 16.7895 78.0675 16.8069C78.0747 16.8243 78.0853 16.8401 78.0988 16.8534C78.1122 16.8667 78.1282 16.8773 78.1458 16.8845C78.1634 16.8918 78.1822 16.8955 78.2013 16.8955H79.8554C79.8745 16.8955 79.8933 16.8918 79.9109 16.8845C79.9285 16.8773 79.9445 16.8667 79.9579 16.8534C79.9714 16.8401 79.982 16.8243 79.9892 16.8069C79.9964 16.7895 80.0001 16.7708 80 16.752V7.32022C80.0001 7.30149 79.9965 7.28292 79.9893 7.26558C79.9821 7.24823 79.9716 7.23245 79.9582 7.21913C79.9449 7.20581 79.929 7.19522 79.9115 7.18795C79.894 7.18069 79.8752 7.1769 79.8562 7.1768ZM75.0565 15.2757C73.6203 15.2757 72.0752 14.2741 72.0752 12.0751C72.0752 10.4943 73.1195 8.81528 75.0565 8.81528C76.5218 8.81528 78.037 10.0344 78.037 12.0751C78.037 14.1766 76.5376 15.2757 75.0565 15.2757Z" fill="white"/>
<path d="M4.64491 17.3257C5.07623 16.6398 5.66711 15.7013 6.99739 15.1681C9.10893 14.1953 10.8302 15.2702 12.4954 16.31C13.4932 16.9336 14.524 17.5767 15.6063 17.7326C15.6196 17.7346 15.6328 17.7375 15.6458 17.7412C17.6341 18.2712 19.9407 17.975 21.9772 16.9305C22.0294 16.8908 22.0452 16.8307 21.8192 16.4028C21.7341 16.2514 21.6634 16.0925 21.6083 15.9281C21.5064 15.7519 21.3863 15.4409 21.1975 14.9459C21.0088 14.451 20.6446 13.4914 20.4194 13.1991C19.3072 13.7109 18.0696 13.8978 16.8531 13.7376C15.6366 13.5773 14.4921 13.0767 13.5548 12.2949C11.711 10.7648 9.44071 10.5668 7.8608 10.6704C7.80046 10.674 7.74021 10.6622 7.68584 10.6361C7.63146 10.61 7.58481 10.5706 7.55035 10.5216C7.51464 10.4715 7.49181 10.4136 7.48383 10.3529C7.47585 10.2922 7.48295 10.2305 7.50454 10.1731C7.82052 9.32816 8.17679 8.48475 8.5212 7.6694C8.75819 7.10661 9.00465 6.52433 9.23216 5.94907L9.31116 5.76044C9.46915 5.38082 9.63108 4.98796 9.79776 4.60289L9.80488 4.58808C9.89835 4.3826 10.0519 4.20934 10.2458 4.09049C10.4397 3.97164 10.6651 3.91262 10.8932 3.921C11.1213 3.92937 11.3417 4.00476 11.5261 4.13749C11.7105 4.27022 11.8505 4.45427 11.9283 4.66603C12.1652 5.17972 12.3777 5.72536 12.5823 6.25307C13.2341 7.93287 13.8502 9.51913 15.2974 10.4358L15.3124 10.4459C16.4349 11.2395 17.9682 11.3813 19.4281 10.8357C19.0829 9.95565 18.7013 9.0569 18.2613 8.08721C18.2591 8.08347 18.2573 8.07956 18.2558 8.07552C17.7771 6.9133 17.2739 5.73705 16.7873 4.59977C16.4231 3.74935 16.0463 2.86931 15.6813 2.00096C15.6158 1.84506 15.551 1.68916 15.487 1.53326C15.3488 1.19964 15.2066 0.85433 15.0525 0.526165C14.8037 0.0880921 14.2081 0.0148191 13.9545 0.00390625H7.55193C7.52586 0.00390625 6.85441 0.0218341 6.50051 0.870698L6.49103 0.894082C6.20033 1.58939 5.89936 2.30808 5.58022 3.00806C4.75235 4.99186 3.89604 7.0006 3.06817 8.94387C2.36511 10.5917 1.63915 12.2957 0.935302 13.9763C0.815925 14.3043 0.679072 14.6259 0.525317 14.9397C0.294651 15.4316 0.0758353 15.8993 0 16.3841V16.8175C0.0260684 17.2283 0.141401 17.9088 0.612212 17.9867H1.6115H2.54601C3.01998 17.9867 3.49948 17.9867 3.97345 17.9937C3.98765 17.9926 4.00192 17.9926 4.01611 17.9937C4.18832 18.0202 4.33999 17.8106 4.64491 17.3257Z" fill="url(#paint3_linear_313_260)"/>
<path d="M21.8226 16.4028C21.7374 16.2514 21.6668 16.0925 21.6116 15.9281C21.5097 15.7519 21.3897 15.4417 21.2009 14.9459C21.0121 14.4502 20.6479 13.4914 20.4228 13.1999C20.4228 13.1999 18.6628 17.4294 12.7452 14.2912C9.30105 12.4633 6.8206 12.775 5.34418 13.3558L5.32996 13.3612C5.0373 13.4767 4.75485 13.6159 4.48551 13.7775C3.37957 14.3964 1.50423 15.7309 0.614746 17.9914H1.61404H2.54855C3.02252 17.9914 3.50202 17.9914 3.97599 17.9984C3.9902 17.9976 4.00444 17.9976 4.01865 17.9984C4.19007 18.021 4.34174 17.8113 4.64666 17.3273C5.07797 16.6413 5.66885 15.702 6.99913 15.1689C9.11067 14.1961 10.832 15.2718 12.4972 16.3108C13.4949 16.9344 14.5258 17.5775 15.608 17.7342C15.6213 17.7359 15.6345 17.7385 15.6475 17.742C17.6358 18.272 19.9425 17.9758 21.979 16.9313C22.0295 16.8908 22.0453 16.8346 21.8226 16.4028Z" fill="url(#paint4_linear_313_260)"/>
<path d="M13.8691 3.56694C14.1717 8.10435 19.4327 10.8326 19.4327 10.8326C19.0875 9.95252 18.706 9.05377 18.266 8.08408C18.2638 8.08034 18.262 8.07644 18.2604 8.07239C17.7817 6.91017 17.2785 5.73392 16.7919 4.59743C16.4278 3.74623 16.051 2.86696 15.686 1.99783C15.6202 1.84193 15.5554 1.68603 15.4917 1.53013C15.3534 1.19573 15.2112 0.850419 15.0572 0.522254C14.8084 0.0841811 14.2127 0.0109129 13.9592 0H9.84668C11.6557 0.242421 13.7032 1.07101 13.8691 3.56694Z" fill="url(#paint5_linear_313_260)"/>
<defs>
<linearGradient id="paint0_linear_313_260" x1="0" y1="9.00077" x2="22.0104" y2="9.00077" gradientUnits="userSpaceOnUse">
<stop stop-color="#1CD6B4"/>
<stop offset="1" stop-color="#002BD1"/>
</linearGradient>
<linearGradient id="paint1_linear_313_260" x1="11.3115" y1="17.9992" x2="11.3115" y2="12.9029" gradientUnits="userSpaceOnUse">
<stop stop-color="#1CD6B4"/>
<stop offset="1" stop-color="#002BD1"/>
</linearGradient>
<linearGradient id="paint2_linear_313_260" x1="9.84668" y1="5.41823" x2="19.4327" y2="5.41823" gradientUnits="userSpaceOnUse">
<stop stop-color="#1CD6B4"/>
<stop offset="1" stop-color="#002BD1"/>
</linearGradient>
<linearGradient id="paint3_linear_313_260" x1="0" y1="9.00077" x2="22.0104" y2="9.00077" gradientUnits="userSpaceOnUse">
<stop stop-color="#1CD6B4"/>
<stop offset="1" stop-color="#002BD1"/>
</linearGradient>
<linearGradient id="paint4_linear_313_260" x1="11.3115" y1="17.9992" x2="11.3115" y2="12.9029" gradientUnits="userSpaceOnUse">
<stop stop-color="#1CD6B4"/>
<stop offset="1" stop-color="#002BD1"/>
</linearGradient>
<linearGradient id="paint5_linear_313_260" x1="9.84668" y1="5.41823" x2="19.4327" y2="5.41823" gradientUnits="userSpaceOnUse">
<stop stop-color="#1CD6B4"/>
<stop offset="1" stop-color="#002BD1"/>
</linearGradient>
</defs>
</svg>
