<svg width="40" height="40" viewBox="0 0 40 40" fill="none" xmlns="http://www.w3.org/2000/svg">
<path d="M18.3333 0H8.33333V3.33333H5V13.3333H8.33333V16.6667H18.3333V13.3333H8.33333V3.33333H18.3333V0ZM18.3333 3.33333H21.6667V13.3333H18.3333V3.33333ZM0 23.3333H3.33333V30H23.3333V33.3333H0V23.3333ZM3.33333 23.3333H23.3333V20H3.33333V23.3333ZM26.6667 23.3333H23.3333V33.3333H26.6667V23.3333ZM25 0H31.6667V3.33333H25V0ZM31.6667 13.3333H25V16.6667H31.6667V13.3333ZM31.6667 3.33333H35V13.3333H31.6667V3.33333ZM40 23.3333H36.6667V30H30V33.3333H40V23.3333ZM30 20H36.6667V23.3333H30V20Z" fill="white"/>
</svg>
